<?xml version="1.0" encoding="UTF-8"?>
<svg viewBox="0 0 640 480" xmlns="http://www.w3.org/2000/svg">
 <g fill-rule="evenodd" stroke="#000">
  <path d="m308.65 393.15h36.696v77.796c-10.764 5.1374-23.73 6.6052-36.696 0v-77.796z" stroke-width="1.25"/>
  <path d="m457.66 402.31c-83.261-16.925-172.68 18.464-261.32 0 60.479-55.435 77.876-167.03 130.66-226.31 42.784 57.743 69.413 170.88 130.66 226.31z" stroke-width="5.214"/>
  <path d="m431.47 257.11c-66.57-13.532-138.06 14.762-208.94 0 48.355-44.322 62.264-133.55 104.47-180.94 34.208 46.168 55.498 136.62 104.47 180.94z" stroke-width="4.169"/>
  <path d="m407.57 141.63c-51.338-10.436-106.47 11.385-161.13 0 37.291-34.181 48.018-102.99 80.565-139.54 26.381 35.604 42.8 105.36 80.565 139.54z" stroke-width="3.215"/>
 </g>
</svg>
